<svg xmlns="http://www.w3.org/2000/svg" version="1.1" xmlns:xlink="http://www.w3.org/1999/xlink" xmlns:svgjs="http://svgjs.dev/svgjs" width="128" height="128" viewBox="0 0 128 128"><g transform="matrix(0.44782608695652176,0,0,0.44782608695652176,35.33913043478261,12.5)"><svg viewBox="0 0 125 225" data-background-color="#ffffff" preserveAspectRatio="xMidYMid meet" height="230" width="128" xmlns="http://www.w3.org/2000/svg" xmlns:xlink="http://www.w3.org/1999/xlink"><g id="tight-bounds" transform="matrix(1,0,0,1,0,0)"><svg viewBox="0 0 125 225" height="225" width="125"><g><svg></svg></g><g><svg viewBox="0 0 125 225" height="225" width="125"><g><path d="M62.5 175c34.476 0 62.5-28.024 62.5-62.5 0-34.476-28.024-62.5-62.5-62.5-34.476 0-62.5 28.024-62.5 62.5 0 34.476 28.024 62.5 62.5 62.5zM64.516 170.847v-4.032c28.387-1.048 51.25-23.911 52.299-52.299h4.032c-1.048 30.645-25.685 55.282-56.331 56.331zM64.516 54.153c30.645 1.048 55.282 25.685 56.331 56.331h-4.032c-1.048-28.387-23.911-51.25-52.299-52.299zM112.903 112.5c0 27.782-22.621 50.403-50.403 50.403-27.782 0-50.403-22.621-50.403-50.403 0-27.782 22.621-50.403 50.403-50.403 27.782 0 50.403 22.621 50.403 50.403zM60.484 54.153v4.032c-28.387 1.048-51.25 23.911-52.299 52.299h-4.032c1.048-30.645 25.685-55.282 56.331-56.331zM8.185 114.516c1.048 28.387 23.911 51.25 52.299 52.299v4.032c-30.645-1.048-55.282-25.685-56.331-56.331z" fill="#ee3e38" fill-rule="nonzero" stroke="none" stroke-width="1" stroke-linecap="butt" stroke-linejoin="miter" stroke-miterlimit="10" stroke-dasharray="" stroke-dashoffset="0" font-family="none" font-weight="none" font-size="none" text-anchor="none" style="mix-blend-mode: normal" data-fill-palette-color="tertiary"></path></g><g transform="matrix(1,0,0,1,39.325,84.23589527027028)"><svg viewBox="0 0 46.35 56.52820945945946" height="56.52820945945946" width="46.35"><g><svg viewBox="0 0 46.35 56.52820945945946" height="56.52820945945946" width="46.35"><g><svg viewBox="0 0 46.35 56.52820945945946" height="56.52820945945946" width="46.35"><g id="textblocktransform"><svg viewBox="0 0 46.35 56.52820945945946" height="56.52820945945946" width="46.35" id="textblock"><g><svg viewBox="0 0 46.35 56.52820945945946" height="56.52820945945946" width="46.35"><g transform="matrix(1,0,0,1,0,0)"><svg width="46.35" viewBox="2.9 -35.5 29.6 36.1" height="56.52820945945946" data-palette-color="#ee3e38"><path d="M17.7 0.6L17.7 0.6Q14.3 0.6 11.58-0.58 8.85-1.75 6.93-4.03 5-6.3 3.95-9.68 2.9-13.05 2.9-17.45L2.9-17.45Q2.9-21.85 3.95-25.2 5-28.55 6.93-30.85 8.85-33.15 11.58-34.33 14.3-35.5 17.7-35.5L17.7-35.5Q21.05-35.5 23.8-34.33 26.55-33.15 28.48-30.85 30.4-28.55 31.45-25.2 32.5-21.85 32.5-17.45L32.5-17.45Q32.5-13.05 31.45-9.68 30.4-6.3 28.48-4.03 26.55-1.75 23.8-0.58 21.05 0.6 17.7 0.6ZM17.7-3.15L17.7-3.15Q19.95-3.15 21.85-3.95 23.75-4.75 25.13-6.25 26.5-7.75 27.25-9.85 28-11.95 28-14.55L28-14.55 28-20.35Q28-22.95 27.25-25.05 26.5-27.15 25.13-28.65 23.75-30.15 21.85-30.95 19.95-31.75 17.7-31.75L17.7-31.75Q15.45-31.75 13.55-30.95 11.65-30.15 10.28-28.65 8.9-27.15 8.15-25.05 7.4-22.95 7.4-20.35L7.4-20.35 7.4-14.55Q7.4-11.95 8.15-9.85 8.9-7.75 10.28-6.25 11.65-4.75 13.55-3.95 15.45-3.15 17.7-3.15Z" opacity="1" transform="matrix(1,0,0,1,0,0)" fill="#ee3e38" class="wordmark-text-0" data-fill-palette-color="primary" id="text-0"></path></svg></g></svg></g></svg></g></svg></g></svg></g></svg></g></svg></g><defs></defs></svg><rect width="125" height="225" fill="none" stroke="none" visibility="hidden"></rect></g></svg></g></svg>