<svg xmlns="http://www.w3.org/2000/svg" version="1.1" xmlns:xlink="http://www.w3.org/1999/xlink" xmlns:svgjs="http://svgjs.dev/svgjs" width="128" height="128" viewBox="0 0 128 128"><g transform="matrix(0.8046875,0,0,0.8046875,12.612792253521128,12.612792253521128)"><svg viewBox="0 0 142 142" data-background-color="#ffffff" preserveAspectRatio="xMidYMid meet" height="128" width="128" xmlns="http://www.w3.org/2000/svg" xmlns:xlink="http://www.w3.org/1999/xlink"><g id="tight-bounds" transform="matrix(1,0,0,1,-0.15550000000000352,-0.15550000000000352)"><svg viewBox="0 0 142.31066447748242 142.31066447748242" height="142.31066447748242" width="142.31066447748242"><g><svg></svg></g><g><svg viewBox="0 0 142.31066447748242 142.31066447748242" height="142.31066447748242" width="142.31066447748242"><g><path d="M0 71.155c0-39.298 31.857-71.155 71.155-71.155 39.298 0 71.155 31.857 71.156 71.155 0 39.298-31.857 71.155-71.156 71.156-39.298 0-71.155-31.857-71.155-71.156zM71.155 134.886c35.197 0 63.731-28.533 63.731-63.731 0-35.197-28.533-63.731-63.731-63.73-35.197 0-63.731 28.533-63.73 63.73 0 35.197 28.533 63.731 63.73 63.731z" data-fill-palette-color="tertiary" fill="#ff0000" stroke="transparent"></path><ellipse rx="68.30911894919156" ry="68.30911894919156" cx="71.15533223874121" cy="71.15533223874121" fill="#ff0000" stroke="transparent" stroke-width="0" fill-opacity="1" data-fill-palette-color="tertiary"></ellipse></g><g transform="matrix(1,0,0,1,36.85014560374561,29.989108276746492)"><svg viewBox="0 0 68.6103732699912 82.33244792398943" height="82.33244792398943" width="68.6103732699912"><g><svg viewBox="0 0 68.6103732699912 82.33244792398943" height="82.33244792398943" width="68.6103732699912"><g><svg viewBox="0 0 68.6103732699912 82.33244792398943" height="82.33244792398943" width="68.6103732699912"><g id="textblocktransform"><svg viewBox="0 0 68.6103732699912 82.33244792398943" height="82.33244792398943" width="68.6103732699912" id="textblock"><g><svg viewBox="0 0 68.6103732699912 82.33244792398943" height="82.33244792398943" width="68.6103732699912"><g transform="matrix(1,0,0,1,0,0)"><svg width="68.6103732699912" viewBox="3.25 -35.2 29.5 35.400000000000006" height="82.33244792398943" data-palette-color="#ffffff"><path d="M18-35.2L18-35.2Q32.75-35.2 32.75-17.4L32.75-17.4Q32.75-9.25 28.55-4.53 24.35 0.2 18 0.2L18 0.2Q11.25 0.2 7.55-3.5L7.55-3.5Q3.25-7.9 3.25-16.75 3.25-25.6 7.48-30.4 11.7-35.2 18-35.2ZM10-5.9L10-5.9Q12.75-2.8 18-2.8L18-2.8Q22.95-2.8 26.15-6.73 29.35-10.65 29.35-18 29.35-25.35 26-29.05L26-29.05Q23.2-32.2 18-32.2L18-32.2Q13.1-32.2 9.88-28.25 6.65-24.3 6.65-16.93 6.65-9.55 10-5.9Z" opacity="1" transform="matrix(1,0,0,1,0,0)" fill="#ffffff" class="wordmark-text-0" data-fill-palette-color="quaternary" id="text-0"></path></svg></g></svg></g></svg></g></svg></g><g></g></svg></g></svg></g></svg></g><defs></defs></svg><rect width="142.31066447748242" height="142.31066447748242" fill="none" stroke="none" visibility="hidden"></rect></g></svg></g></svg>