<svg xmlns="http://www.w3.org/2000/svg" version="1.1" xmlns:xlink="http://www.w3.org/1999/xlink" xmlns:svgjs="http://svgjs.dev/svgjs" width="1000" height="750" viewBox="0 0 1000 750"><rect width="1000" height="750" fill="#ffffff"></rect><g transform="matrix(0.5191111111111111,0,0,0.5191111111111111,240.44444444444446,83)"><svg viewBox="0 0 320 360" data-background-color="#ffffff" preserveAspectRatio="xMidYMid meet" height="1125" width="1000" xmlns="http://www.w3.org/2000/svg" xmlns:xlink="http://www.w3.org/1999/xlink"><g id="tight-bounds" transform="matrix(1,0,0,1,0,0)"><svg viewBox="0 0 320 360" height="360" width="320"><g><svg></svg></g><g><svg viewBox="0 0 320 360" height="360" width="320"><g><path xmlns="http://www.w3.org/2000/svg" d="M160 340c88.258 0 160-71.742 160-160 0-88.258-71.742-160-160-160-88.258 0-160 71.742-160 160 0 88.258 71.742 160 160 160zM165.161 329.368v-10.323c72.671-2.684 131.2-61.213 133.884-133.884h10.323c-2.684 78.452-65.755 141.523-144.207 144.207zM165.161 30.632c78.452 2.684 141.523 65.755 144.207 144.207h-10.323c-2.684-72.671-61.213-131.2-133.884-133.884zM289.032 180c0 71.123-57.91 129.032-129.032 129.032-71.123 0-129.032-57.91-129.032-129.032 0-71.123 57.91-129.032 129.032-129.032 71.123 0 129.032 57.91 129.032 129.032zM154.839 30.632v10.323c-72.671 2.684-131.2 61.213-133.884 133.884h-10.323c2.684-78.452 65.755-141.523 144.207-144.207zM20.955 185.161c2.684 72.671 61.213 131.2 133.884 133.884v10.323c-78.452-2.684-141.523-65.755-144.207-144.207z" fill="#ee3e38" fill-rule="nonzero" stroke="none" stroke-width="1" stroke-linecap="butt" stroke-linejoin="miter" stroke-miterlimit="10" stroke-dasharray="" stroke-dashoffset="0" font-family="none" font-weight="none" font-size="none" text-anchor="none" style="mix-blend-mode: normal" data-fill-palette-color="tertiary"></path></g><g transform="matrix(1,0,0,1,86.20498614958449,90)"><svg viewBox="0 0 147.59002770083103 180" height="180" width="147.59002770083103"><g><svg viewBox="0 0 147.59002770083103 180" height="180" width="147.59002770083103"><g><svg viewBox="0 0 147.59002770083103 180" height="180" width="147.59002770083103"><g><svg viewBox="0 0 147.59002770083103 180" height="180" width="147.59002770083103"><g id="textblocktransform"><svg viewBox="0 0 147.59002770083103 180" height="180" width="147.59002770083103" id="textblock"><g><svg viewBox="0 0 147.59002770083103 180" height="180" width="147.59002770083103"><g transform="matrix(1,0,0,1,0,0)"><svg width="147.59002770083103" viewBox="2.9000000953674316 -35.5 29.600000381469727 36.099998474121094" height="180" data-palette-color="#ee3e38"><path d="M17.7 0.6L17.7 0.6Q14.3 0.6 11.58-0.58 8.85-1.75 6.93-4.03 5-6.3 3.95-9.68 2.9-13.05 2.9-17.45L2.9-17.45Q2.9-21.85 3.95-25.2 5-28.55 6.93-30.85 8.85-33.15 11.58-34.33 14.3-35.5 17.7-35.5L17.7-35.5Q21.05-35.5 23.8-34.33 26.55-33.15 28.48-30.85 30.4-28.55 31.45-25.2 32.5-21.85 32.5-17.45L32.5-17.45Q32.5-13.05 31.45-9.68 30.4-6.3 28.48-4.03 26.55-1.75 23.8-0.58 21.05 0.6 17.7 0.6ZM17.7-3.15L17.7-3.15Q19.95-3.15 21.85-3.95 23.75-4.75 25.13-6.25 26.5-7.75 27.25-9.85 28-11.95 28-14.55L28-14.55 28-20.35Q28-22.95 27.25-25.05 26.5-27.15 25.13-28.65 23.75-30.15 21.85-30.95 19.95-31.75 17.7-31.75L17.7-31.75Q15.45-31.75 13.55-30.95 11.65-30.15 10.28-28.65 8.9-27.15 8.15-25.05 7.4-22.95 7.4-20.35L7.4-20.35 7.4-14.55Q7.4-11.95 8.15-9.85 8.9-7.75 10.28-6.25 11.65-4.75 13.55-3.95 15.45-3.15 17.7-3.15Z" opacity="1" transform="matrix(1,0,0,1,0,0)" fill="#ee3e38" class="wordmark-text-0" data-fill-palette-color="primary" id="text-0"></path></svg></g></svg></g></svg></g></svg></g></svg></g></svg></g></svg></g></svg></g><defs></defs></svg><rect width="320" height="360" fill="none" stroke="none" visibility="hidden"></rect></g></svg></g></svg>